<?xml version="1.0" encoding="utf-8"?>
<!-- Generator: Adobe Illustrator 21.1.0, SVG Export Plug-In . SVG Version: 6.00 Build 0)  -->
<svg version="1.1" id="Layer_1" xmlns="http://www.w3.org/2000/svg" xmlns:xlink="http://www.w3.org/1999/xlink" x="0px" y="0px"
	 viewBox="0 0 1125.5 615.4" style="enable-background:new 0 0 1125.5 615.4;" xml:space="preserve">
<style type="text/css">
	.st0{fill:#525268;}
	.st1{fill:#D62D20;}
	.st2{fill:#0057E7;}
	.st3{fill:#FFA700;}
</style>
<path class="st0" d="M409.5,353.3H189.9c10.7,39.7,43.5,61.8,88.3,61.8c34.1,0,61.8-12,87-31.5l35.3,58
	c-35.3,29.6-77,46.7-124.9,46.7c-99,0-170.9-71.3-170.9-163.4s71.3-163.4,163.4-163.4c87.7,0,147,64.3,147,145.1
	C415.1,324.3,412,342.6,409.5,353.3z M189.9,293.4h142.6c-0.6-39.7-31.5-63.1-67.5-63.1C229,230.3,200,254.2,189.9,293.4z"/>
<path class="st0" d="M763.4,7.7L763,480.8l-78.2-0.1l0-39.1c-21.5,29.6-56.8,46.6-100.3,46.6c-88.3-0.1-151.3-69.5-151.3-163.5
	c0.1-94,63.2-163.3,151.5-163.3c39.1,0,71.9,13.3,93.3,37.3l0.2-191.1L763.4,7.7z M679.2,325c0-59.3-39.7-86.4-78.8-86.5
	c-44.2,0-80.8,32.7-80.8,85.7c0,53,35.9,86.4,80.7,86.5C639.4,410.7,679.2,384.9,679.2,325z"/>
<path class="st0" d="M1119.7,170v277.5c0,105.3-67.5,155.8-161.5,155.8c-68.1,0-118-26.5-153.3-58l44.8-59.3
	c30.9,24,61.2,40.4,101.6,40.4c47.9,0,83.3-23.3,83.3-73.8v-17c-22.1,24-56.1,37.2-95.2,37.2c-85.8,0-149.5-62.4-149.5-155.2
	c0-94,64.3-154.5,149.5-154.5c45.4,0,80.7,16.4,102.2,46V170H1119.7z M1035.8,316.3c0-57.4-39.7-80.7-78.8-80.7
	c-44.2,0-80.7,29.6-80.7,81.4c0,51.7,37.2,83.9,80.7,83.9C996.7,400.9,1035.8,373.7,1035.8,316.3z"/>
<path class="st1" d="M1987.3,365.3h-184.9c9,33.5,36.7,52.1,74.4,52.1c28.7,0,52.1-10.1,73.3-26.6l29.7,48.9
	c-29.7,25-64.8,39.3-105.2,39.3c-83.4,0-144-60-144-137.6s60-137.6,137.6-137.6c73.8,0,123.8,54.2,123.8,122.2
	C1992.1,340.9,1989.5,356.3,1987.3,365.3z M1802.5,314.9h120c-0.5-33.5-26.6-53.1-56.8-53.1S1811,281.9,1802.5,314.9z"/>
<path class="st2" d="M2285.4,74.3l-0.3,398.4l-65.9-0.1l0-32.9c-18.1,25-47.8,39.3-84.5,39.2c-74.4-0.1-127.4-58.5-127.4-137.7
	c0.1-79.1,53.2-137.5,127.6-137.5c32.9,0,60.5,11.2,78.6,31.4l0.1-161L2285.4,74.3z M2214.5,341.5c0-49.9-33.4-72.8-66.3-72.8
	c-37.2,0-68,27.6-68.1,72.2c0,44.6,30.2,72.8,67.9,72.8C2181,413.7,2214.5,391.9,2214.5,341.5z"/>
<path class="st3" d="M2545.4,211v233.7c0,88.7-56.8,131.2-136,131.2c-57.4,0-99.3-22.3-129.1-48.9l37.7-49.9
	c26,20.2,51.5,34,85.5,34c40.4,0,70.1-19.7,70.1-62.1v-14.3c-18.6,20.2-47.3,31.3-80.2,31.3c-72.2,0-125.9-52.6-125.9-130.7
	c0-79.1,54.2-130.1,125.9-130.1c38.2,0,68,13.8,86.1,38.8V211H2545.4z M2474.8,334.2c0-48.3-33.5-68-66.4-68c-37.2,0-68,25-68,68.5
	c0,43.6,31.3,70.6,68,70.6C2441.9,405.4,2474.8,382.6,2474.8,334.2z"/>
<text transform="matrix(1 0 0 1 1596.2051 -106.3951)" class="st0" style="font-family:'Damion'; font-size:37.6065px;">web developer &amp; designer</text>
<text transform="matrix(1 0 0 1 1343.7065 -28.7935)" style="font-family:'CeraBasic-Bold'; font-size:280.9542px;">&lt;</text>
<circle class="st0" cx="48.1" cy="436" r="42.1"/>
</svg>
